<svg width="96" height="22" viewBox="0 0 96 22" fill="none" xmlns="http://www.w3.org/2000/svg">
<path d="M6.44206 15.6118H11.0481C11.0481 18.6637 8.57055 21.1413 5.51859 21.1413V16.5351C6.03664 16.5239 6.44206 16.1185 6.44206 15.6118Z" fill="#00B4FC"/>
<path d="M5.52955 16.5239V21.13C2.4776 21.13 0 18.6524 0 15.6004H4.60607C4.60607 16.1184 5.01151 16.5239 5.52955 16.5239Z" fill="#00B4FC"/>
<path d="M11.0557 6.38825H6.4496C6.4496 3.3363 8.9272 0.85874 11.9792 0.85874V5.46476C11.4611 5.47602 11.0557 5.88147 11.0557 6.38825Z" fill="#00B4FC"/>
<path d="M11.9714 5.4761V0.86997C15.0234 0.86997 17.501 3.34753 17.501 6.39948H12.8949C12.8949 5.88144 12.4895 5.4761 11.9714 5.4761Z" fill="#00B4FC"/>
<path d="M11.0482 15.6117H6.44216V11.0056H11.0482V15.6117Z" fill="#00B4FC"/>
<path d="M11.0482 11.0056H6.44216V6.37675H11.0482V11.0056Z" fill="#00B4FC"/>
<path d="M17.5011 15.6117H12.895V11.0056H17.5011V15.6117Z" fill="#00B4FC"/>
<path d="M17.5011 20.2178H12.895V15.6117H17.5011V20.2178Z" fill="#00B4FC"/>
<path d="M17.5011 11.0056H12.895V6.39946H17.5011V11.0056Z" fill="#00B4FC"/>
<path d="M4.60607 15.6117H0V11.0056H4.60607V15.6117Z" fill="#00B4FC"/>
<path d="M4.60607 11.0056H0V5.49809H4.60607V11.0056Z" fill="#00B4FC"/>
<path d="M4.60607 6.38828H0V1.78215H4.60607V6.38828Z" fill="#00B4FC"/>
<path d="M24.7357 17.4904C24.1227 17.4904 23.5698 17.4604 23.077 17.4003C22.5842 17.3402 22.1275 17.25 21.7068 17.1298C21.2861 17.0097 20.8775 16.8534 20.4808 16.6611V13.8846C21.0337 14.3294 21.6587 14.6659 22.3559 14.8943C23.053 15.1226 23.714 15.2368 24.339 15.2368C24.8919 15.2368 25.3126 15.1346 25.6011 14.9303C25.9015 14.714 26.0518 14.3895 26.0518 13.9568C26.0518 13.6322 25.9136 13.3738 25.6371 13.1815C25.3727 12.9772 25.0181 12.8029 24.5734 12.6587C24.1287 12.5024 23.6299 12.3281 23.077 12.1358C22.7285 12.0277 22.3859 11.8894 22.0494 11.7212C21.7128 11.5529 21.4123 11.3426 21.1479 11.0902C20.8835 10.8257 20.6732 10.5072 20.5169 10.1346C20.3607 9.76203 20.2825 9.3053 20.2825 8.76443C20.2825 8.27164 20.3727 7.79688 20.553 7.34015C20.7333 6.88341 21.0097 6.47476 21.3823 6.11418C21.7669 5.7536 22.2537 5.47115 22.8426 5.26682C23.4316 5.05047 24.1227 4.9423 24.916 4.9423C25.4088 4.9423 25.8414 4.97235 26.214 5.03245C26.5987 5.09254 26.9652 5.18269 27.3138 5.30288C27.6624 5.41105 28.0169 5.55528 28.3775 5.73557V8.54808C28.1011 8.31972 27.7886 8.10938 27.44 7.91707C27.1035 7.71274 26.7489 7.54447 26.3763 7.41226C26.0037 7.28005 25.6131 7.20793 25.2044 7.19591C24.8438 7.1839 24.5133 7.21995 24.2128 7.30409C23.9124 7.38822 23.678 7.52645 23.5097 7.71875C23.3414 7.89904 23.2573 8.13342 23.2573 8.42188C23.2573 8.75842 23.3595 9.02284 23.5638 9.21515C23.7681 9.40746 24.0506 9.56972 24.4112 9.70193C24.7717 9.82213 25.1744 9.95434 25.6191 10.0986C26.1119 10.2428 26.5626 10.4051 26.9713 10.5854C27.3919 10.7536 27.7585 10.97 28.071 11.2344C28.3835 11.4988 28.6239 11.8233 28.7922 12.208C28.9604 12.5926 29.0446 13.0553 29.0446 13.5962C29.0446 14.3173 28.8763 14.9784 28.5398 15.5794C28.2032 16.1683 27.7165 16.6371 27.0794 16.9856C26.4424 17.3222 25.6612 17.4904 24.7357 17.4904Z" fill="#010101"/>
<path d="M34.7444 17.5986C33.6867 17.5986 32.8994 17.3522 32.3826 16.8594C31.8658 16.3546 31.6074 15.6455 31.6074 14.732V10.1707H30.2732V8.11539H31.6074V5.60937H34.4199V8.11539H36.4211V10.1707H34.4199V14.3895C34.4199 14.702 34.486 14.9363 34.6182 15.0926C34.7504 15.2368 34.9728 15.3089 35.2853 15.3089C35.4656 15.3089 35.6639 15.2729 35.8802 15.2008C36.0966 15.1286 36.2769 15.0385 36.4211 14.9303V17.238C36.1687 17.3702 35.8922 17.4604 35.5918 17.5085C35.3033 17.5685 35.0208 17.5986 34.7444 17.5986Z" fill="#010101"/>
<path d="M38.4599 17.238V9.07092C38.6282 8.92669 38.9286 8.76443 39.3613 8.58414C39.794 8.39183 40.2868 8.22356 40.8397 8.07933C41.4046 7.92308 41.9695 7.84496 42.5344 7.84496C43.0993 7.84496 43.5441 7.88702 43.8686 7.97116C44.1931 8.05529 44.4395 8.16347 44.6078 8.29568V10.2608C44.4034 10.2128 44.145 10.1767 43.8325 10.1527C43.52 10.1286 43.1955 10.1166 42.859 10.1166C42.5224 10.1046 42.2039 10.1046 41.9034 10.1166C41.6029 10.1286 41.3505 10.1527 41.1462 10.1887V17.238H38.4599Z" fill="#010101"/>
<path d="M49.6871 17.5085C49.1342 17.5085 48.6114 17.4544 48.1186 17.3462C47.6378 17.25 47.2112 17.0878 46.8386 16.8594C46.478 16.619 46.1955 16.3005 45.9912 15.9039C45.7869 15.4952 45.6847 14.9904 45.6847 14.3895C45.6847 13.8245 45.7989 13.3318 46.0273 12.9111C46.2676 12.4904 46.6282 12.1659 47.109 11.9375C47.5898 11.7092 48.1967 11.595 48.9299 11.595C49.3386 11.595 49.7352 11.637 50.1198 11.7212C50.5044 11.8053 50.847 11.9195 51.1475 12.0637C51.46 12.208 51.7064 12.3642 51.8866 12.5325L51.9948 13.8306C51.7544 13.6863 51.466 13.5721 51.1294 13.488C50.7929 13.4039 50.4323 13.3618 50.0477 13.3618C49.4588 13.3618 49.0261 13.4519 48.7496 13.6322C48.4852 13.8005 48.353 14.0709 48.353 14.4435C48.353 14.6719 48.4191 14.8762 48.5513 15.0565C48.6835 15.2368 48.8578 15.375 49.0741 15.4712C49.3025 15.5673 49.5369 15.6154 49.7773 15.6154C50.3902 15.6154 50.8169 15.5733 51.0573 15.4892C51.3097 15.4051 51.4359 15.2368 51.4359 14.9844V11.631C51.4359 11.0781 51.2556 10.6815 50.8951 10.4411C50.5465 10.1887 50.0477 10.0625 49.3987 10.0625C48.8698 10.0625 48.335 10.1587 47.7941 10.351C47.2652 10.5313 46.8325 10.7536 46.496 11.018V8.63823C46.8085 8.44592 47.2893 8.26563 47.9383 8.09736C48.5994 7.92909 49.3386 7.84496 50.1559 7.84496C50.4443 7.84496 50.7628 7.86899 51.1114 7.91707C51.46 7.96515 51.8085 8.05529 52.1571 8.18751C52.5056 8.3077 52.8242 8.48799 53.1126 8.72837C53.4131 8.96876 53.6535 9.27525 53.8338 9.64785C54.0141 10.0204 54.1042 10.4832 54.1042 11.0361L54.0862 15.345C54.0862 15.8618 53.9119 16.2825 53.5633 16.607C53.2148 16.9195 52.71 17.1479 52.0489 17.2921C51.3999 17.4363 50.6126 17.5085 49.6871 17.5085Z" fill="#010101"/>
<path d="M60.2208 17.5986C59.1631 17.5986 58.3758 17.3522 57.859 16.8594C57.3422 16.3546 57.0838 15.6455 57.0838 14.732V10.1707H55.7496V8.11539H57.0838V5.60937H59.8963V8.11539H61.8975V10.1707H59.8963V14.3895C59.8963 14.702 59.9624 14.9363 60.0946 15.0926C60.2268 15.2368 60.4492 15.3089 60.7617 15.3089C60.942 15.3089 61.1403 15.2729 61.3566 15.2008C61.573 15.1286 61.7533 15.0385 61.8975 14.9303V17.238C61.6451 17.3702 61.3686 17.4604 61.0682 17.5085C60.7797 17.5685 60.4972 17.5986 60.2208 17.5986Z" fill="#010101"/>
<path d="M63.9904 17.238V8.24159H66.6767L66.6947 17.238H63.9904ZM63.9363 6.87139V4.79807H66.7127V6.87139H63.9363Z" fill="#010101"/>
<path d="M69.7801 17.238V10.1707H68.4279V8.11539H69.7981V7.89904C69.7981 7.3101 69.8582 6.80529 69.9784 6.38461C70.0986 5.96394 70.2668 5.61538 70.4832 5.33894C70.6995 5.05047 70.9519 4.82812 71.2404 4.67187C71.5289 4.51562 71.8474 4.40744 72.1959 4.34735C72.5445 4.27523 72.9051 4.23917 73.2777 4.23917C73.47 4.23917 73.6803 4.2572 73.9087 4.29326C74.137 4.3173 74.3233 4.35937 74.4676 4.41946V6.79928C74.3594 6.66707 74.2392 6.5649 74.107 6.49279C73.9748 6.42067 73.7945 6.38461 73.5661 6.38461C73.4099 6.38461 73.2656 6.40264 73.1334 6.4387C73.0012 6.47476 72.887 6.53486 72.7909 6.61899C72.6947 6.70312 72.6166 6.82332 72.5565 6.97957C72.5084 7.13582 72.4844 7.33414 72.4844 7.57452V8.11539H75.4331L76.2683 10.1707H72.4664V17.238H69.7801Z" fill="#010101"/>
<path d="M78.1735 20.7717C77.873 20.7717 77.5785 20.7416 77.2901 20.6815C77.0016 20.6214 76.7552 20.5433 76.5509 20.4472V18.2657C76.7432 18.3378 76.9235 18.3859 77.0918 18.4099C77.26 18.446 77.4343 18.464 77.6146 18.464C77.9151 18.464 78.1735 18.3919 78.3899 18.2476C78.6182 18.1154 78.8045 17.8811 78.9487 17.5445C79.093 17.22 79.2072 16.7753 79.2913 16.2104L79.3454 17.7428L75.4331 8.11539H78.5161L80.5894 14.5157H80.3189L82.3742 8.11539H85.2589L81.6711 17.3823C81.3466 18.2236 80.992 18.8907 80.6074 19.3835C80.2348 19.8763 79.8442 20.2308 79.4355 20.4472C79.0269 20.6635 78.6062 20.7717 78.1735 20.7717Z" fill="#010101"/>
<path d="M91.3846 13.5962L88.8966 17.238H86.0661L90.1586 11.8834L91.3846 13.5962ZM95.8558 17.238H92.6647L86.1562 8.11539H89.3293L95.8558 17.238ZM90.5913 11.8474L93.1514 8.11539H96L91.8173 13.5962L90.5913 11.8474Z" fill="#010101"/>
</svg>
